{"glyphs":{"0":{"ha":596,"x_min":0,"x_max":596,"o":"m 298 714 l 298 714 q 371 714 424 670 q 476 626 505 545 q 533 463 533 350 l 533 350 q 533 237 505 156 q 476 74 424 30 q 371 -14 298 -14 l 298 -14 q 225 -14 173 30 q 120 74 92 156 q 63 237 63 350 l 63 350 q 63 463 92 545 q 120 626 173 670 q 225 714 298 714 z m 298 684 l 298 684 q 222 684 178 595 q 133 505 133 350 l 133 350 q 133 195 178 106 q 222 16 298 16 l 298 16 q 375 16 419 106 q 463 195 463 350 l 463 350 q 463 505 419 595 q 375 684 298 684 z"},"1":{"ha":344,"x_min":0,"x_max":344,"o":"m 67 0 l 284 0 l 284 10 l 263 10 q 241 10 225 26 q 208 41 208 63 l 208 63 l 208 714 l 198 714 q 183 697 167 686 q 151 674 134 668 q 117 661 99 657 q 80 653 60 650 l 60 650 l 60 640 l 98 640 q 121 640 133 628 q 144 615 144 591 l 144 591 l 144 64 q 144 42 128 26 q 112 10 89 10 l 89 10 l 68 10 l 67 0 z"},"2":{"ha":553,"x_min":0,"x_max":553,"o":"m 102 536 l 92 536 l 74 649 q 93 668 123 683 q 153 697 187 706 q 221 714 253 714 l 253 714 q 319 714 369 690 q 418 666 445 622 q 472 578 472 516 l 472 516 q 472 465 450 413 q 427 360 391 310 q 355 259 313 213 q 271 166 231 127 q 191 87 161 56 l 161 56 l 391 56 q 421 56 441 64 q 460 72 476 91 q 491 110 508 141 l 508 141 l 518 141 l 471 0 l 60 0 l 60 10 q 95 42 140 89 q 184 135 229 189 q 274 243 312 300 q 350 357 374 412 q 397 466 397 512 l 397 512 q 397 593 359 640 q 320 686 253 684 l 253 684 q 183 683 142 645 q 101 607 102 536 l 102 536 z"},"3":{"ha":503,"x_min":0,"x_max":503,"o":"m 217 712 l 217 712 q 278 715 322 696 q 366 676 390 642 q 414 607 414 563 l 414 563 q 414 527 398 494 q 382 461 357 437 q 331 413 302 403 q 272 392 245 399 l 245 399 q 278 399 311 388 q 344 376 372 353 q 400 330 417 296 q 433 261 433 216 l 433 216 q 433 169 414 127 q 394 85 360 52 q 325 18 278 -4 q 231 -27 176 -34 q 120 -42 60 -32 l 60 -32 l 62 -22 q 122 -23 175 -6 q 228 11 270 43 q 311 75 335 120 q 358 165 358 219 l 358 219 q 358 276 332 313 q 305 349 259 367 q 213 384 153 384 l 153 384 l 155 394 q 200 394 243 414 q 286 434 314 472 q 341 510 338 565 l 338 565 q 337 595 324 622 q 310 648 284 665 q 257 682 215 682 l 215 682 q 153 682 119 645 q 85 607 88 548 l 88 548 l 78 548 l 61 641 q 85 668 122 689 q 158 709 217 712 z"},"4":{"ha":583,"x_min":0,"x_max":583,"o":"m 351 1 l 351 614 l 406 714 l 416 714 l 416 1 l 351 1 z m 40 259 l 406 714 l 416 677 l 115 304 l 459 304 q 487 304 496 309 q 505 314 514 324 l 514 324 l 524 324 l 503 249 l 40 249 l 40 259 z m 351 64 l 416 64 q 416 42 433 26 q 449 10 471 10 l 471 10 l 482 10 l 482 0 l 284 0 l 285 10 l 295 10 q 318 10 335 26 q 351 41 351 64 l 351 64 z"},"5":{"ha":498,"x_min":0,"x_max":498,"o":"m 422 729 l 389 624 l 154 609 l 108 451 q 171 467 229 463 q 286 458 331 433 q 376 408 401 364 q 426 319 423 254 l 423 254 q 420 181 389 130 q 358 78 312 45 q 265 11 214 -7 q 163 -25 119 -30 q 75 -35 50 -31 l 50 -31 l 52 -21 q 77 -22 113 -12 q 149 -2 189 19 q 228 40 263 72 q 297 104 321 148 q 344 191 348 246 l 348 246 q 353 314 316 356 q 279 397 214 407 q 148 417 66 389 l 66 389 l 57 393 l 135 664 l 333 679 q 365 679 383 693 q 401 707 412 729 l 412 729 l 422 729 z"},"6":{"ha":560,"x_min":0,"x_max":560,"o":"m 401 734 l 401 734 l 405 727 q 334 704 284 660 q 233 615 202 555 q 170 494 155 422 q 140 350 140 272 l 140 272 q 140 197 158 139 q 175 81 210 48 q 244 15 295 15 l 295 15 q 343 15 373 42 q 402 69 417 112 q 431 154 430 202 l 430 202 q 429 252 414 289 q 398 326 368 347 q 338 367 295 367 l 295 367 q 264 367 235 354 q 205 341 185 315 l 185 315 l 179 324 q 205 355 238 375 q 271 394 307 401 q 342 407 376 400 q 409 392 437 370 q 465 348 483 310 q 501 271 505 216 l 505 216 q 509 158 485 106 q 460 53 412 20 q 363 -14 295 -15 l 295 -15 q 228 -16 176 18 q 123 52 94 117 q 64 181 65 272 l 65 272 q 66 350 87 428 q 107 505 148 571 q 189 636 252 680 q 315 724 401 734 z"},"7":{"ha":502,"x_min":0,"x_max":502,"o":"m 63 698 l 35 585 l 45 585 q 56 615 73 630 q 90 645 120 645 l 120 645 l 402 645 l 314 414 q 301 381 285 339 q 268 297 250 251 q 232 204 214 158 q 195 112 179 72 q 163 31 151 0 l 151 0 l 221 0 q 229 33 243 78 q 256 123 272 173 q 288 222 305 269 q 321 316 335 353 q 348 390 355 410 l 355 410 l 463 700 l 63 698 z"},"8":{"ha":552,"x_min":0,"x_max":552,"o":"m 96 547 l 96 547 q 96 594 118 632 q 139 669 180 691 q 220 713 276 714 l 276 714 q 328 715 369 695 q 409 675 433 637 q 456 599 456 545 l 456 545 q 456 501 439 465 q 422 428 389 403 q 356 377 308 365 l 308 365 l 281 380 q 319 405 341 433 q 362 461 372 492 q 381 522 381 553 l 381 553 q 381 613 353 649 q 325 684 277 684 l 277 684 q 226 684 199 647 q 171 610 171 560 l 171 560 q 171 527 183 498 q 195 469 218 446 q 241 422 274 403 l 274 403 q 302 387 339 370 q 376 352 411 328 q 446 303 469 267 q 492 230 492 175 l 492 175 q 492 119 466 77 q 439 34 391 10 q 342 -14 276 -14 l 276 -14 q 227 -14 186 0 q 145 14 117 40 q 88 65 73 101 q 58 137 60 181 l 60 181 q 61 208 69 232 q 76 255 90 276 q 103 296 123 314 q 142 331 168 347 q 193 362 224 375 l 224 375 l 248 356 q 202 328 169 284 q 136 239 135 171 l 135 171 q 134 100 172 58 q 210 16 277 16 l 277 16 q 326 16 357 37 q 387 58 402 91 q 417 124 417 161 l 417 161 q 417 200 404 226 q 390 252 368 270 q 346 288 321 301 q 295 314 271 326 l 271 326 q 234 346 202 369 q 170 391 146 419 q 122 446 109 478 q 96 510 96 547 z"},"9":{"ha":560,"x_min":0,"x_max":560,"o":"m 159 -37 l 159 -37 l 156 -30 q 227 -10 277 34 q 327 78 359 139 q 390 200 405 272 q 420 343 420 418 l 420 418 q 420 499 403 559 q 386 618 352 650 q 318 682 266 682 l 266 682 q 219 682 189 656 q 158 630 144 588 q 130 545 131 495 l 131 495 q 132 447 148 409 q 163 371 193 350 q 223 329 266 330 l 266 330 q 297 331 327 344 q 356 356 376 382 l 376 382 l 381 373 q 356 341 323 322 q 290 303 254 297 q 218 291 184 300 q 149 308 121 331 q 92 353 75 391 q 58 428 56 481 l 56 481 q 54 552 81 603 q 108 654 157 683 q 205 711 266 712 l 266 712 q 370 714 433 639 q 495 563 495 424 l 495 424 q 495 349 475 272 q 455 194 414 127 q 372 59 309 15 q 246 -29 159 -37 z"}," ":{"ha":250,"x_min":0,"x_max":250,"o":""},"!":{"ha":230,"x_min":0,"x_max":230,"o":"m 115 -4 l 115 -4 q 96 -4 83 9 q 70 22 70 41 l 70 41 q 70 60 83 73 q 96 86 115 86 l 115 86 q 134 86 147 73 q 160 60 160 41 l 160 41 q 160 22 147 9 q 134 -4 115 -4 z m 140 403 l 119 170 l 109 170 l 89 403 l 77 702 l 152 702 l 140 403 z"},"\"":{"ha":315,"x_min":0,"x_max":315,"o":"m 66 700 l 66 700 l 136 714 q 136 695 133 664 q 130 633 122 601 q 113 568 98 541 q 83 513 59 500 l 59 500 l 50 505 q 60 549 64 579 q 68 609 69 637 q 69 664 66 700 z m 196 700 l 196 700 l 266 714 q 266 695 263 664 q 260 633 252 601 q 243 568 228 541 q 213 513 189 500 l 189 500 l 180 505 q 190 549 194 579 q 198 609 199 637 q 199 664 196 700 z"},"#":{"ha":536,"x_min":0,"x_max":536,"o":"m 89 0 l 212 700 l 244 700 l 121 0 l 89 0 z m 289 0 l 412 700 l 444 700 l 321 0 l 289 0 z m 64 497 l 516 497 l 516 467 l 64 467 l 64 497 z m 20 247 l 472 247 l 472 217 l 20 217 l 20 247 z"},"$":{"ha":469,"x_min":0,"x_max":469,"o":"m 237 714 l 237 714 q 261 714 282 712 q 302 710 320 707 q 337 703 351 700 q 364 696 373 692 l 373 692 l 373 581 l 364 581 q 364 629 332 657 q 300 684 247 684 l 247 684 q 214 684 187 668 q 160 652 144 626 q 128 600 128 570 l 128 570 q 128 548 138 523 q 147 498 169 477 l 169 477 l 365 295 q 394 268 405 237 q 415 206 415 174 l 415 174 q 415 90 365 39 q 315 -13 233 -14 l 233 -14 q 185 -14 136 0 q 87 13 59 41 l 59 41 q 55 57 55 81 q 55 105 59 132 q 63 158 70 180 l 70 180 l 79 180 q 75 128 92 91 q 108 53 142 34 q 176 15 223 16 l 223 16 q 260 18 291 35 q 321 52 339 82 q 357 111 357 149 l 357 149 q 357 176 348 200 q 339 224 318 243 l 318 243 l 126 421 q 95 450 84 483 q 72 515 72 546 l 72 546 q 72 591 95 630 q 117 668 155 691 q 192 714 237 714 z m 297 704 l 373 704 l 373 683 l 297 683 l 297 704 z m 181 -99 l 249 788 l 279 787 l 211 -102 l 181 -99 z"},"%":{"ha":684,"x_min":0,"x_max":684,"o":"m 217 714 l 217 714 q 277 714 307 667 q 336 620 322 537 l 322 537 q 308 455 262 408 q 215 361 154 361 l 154 361 q 94 361 65 408 q 35 455 49 537 l 49 537 q 63 620 110 667 q 156 714 217 714 z m 213 694 l 213 694 q 174 694 145 652 q 115 610 102 537 l 102 537 q 89 464 104 423 q 119 381 158 381 l 158 381 q 197 381 227 423 q 256 464 269 537 l 269 537 q 282 610 267 652 q 252 694 213 694 z m 541 700 l 168 -11 l 143 0 l 499 676 q 474 663 444 649 q 414 635 376 638 l 376 638 q 346 641 320 656 q 293 670 267 683 q 241 696 212 694 l 212 694 l 212 714 q 241 714 262 707 q 283 699 301 688 q 318 677 336 668 q 354 659 377 657 l 377 657 q 406 655 432 665 q 458 675 481 689 q 503 702 519 709 l 519 709 l 541 700 z m 531 339 l 531 339 q 591 339 621 292 q 650 245 636 162 l 636 162 q 622 80 576 33 q 529 -14 468 -14 l 468 -14 q 408 -14 379 33 q 349 80 363 162 l 363 162 q 377 245 424 292 q 470 339 531 339 z m 527 319 l 527 319 q 488 319 459 277 q 429 235 416 162 l 416 162 q 403 89 418 48 q 433 6 472 6 l 472 6 q 511 6 541 48 q 570 89 583 162 l 583 162 q 596 235 581 277 q 566 319 527 319 z"},"&":{"ha":646,"x_min":0,"x_max":646,"o":"m 314 714 l 314 714 q 348 714 380 705 q 412 696 439 681 q 466 665 484 643 l 484 643 l 466 530 l 456 530 q 456 578 438 613 q 420 647 389 666 q 357 684 314 684 l 314 684 q 257 684 220 644 q 182 604 182 543 l 182 543 q 182 480 223 426 q 264 372 341 303 l 341 303 q 363 284 390 260 q 416 235 451 205 q 485 175 528 139 l 528 139 q 560 113 594 84 q 627 55 663 34 q 698 13 736 10 l 736 10 l 736 0 q 717 0 682 1 q 646 2 603 15 q 560 28 517 63 l 517 63 q 479 94 448 121 q 416 147 390 170 q 363 192 340 213 q 317 233 295 253 l 295 253 q 237 307 197 351 q 156 394 135 440 q 113 485 113 543 l 113 543 q 113 580 127 611 q 141 642 168 665 q 194 688 231 701 q 268 714 314 714 z m 590 329 l 590 329 q 601 274 596 224 q 591 174 572 132 q 552 89 519 57 q 485 25 439 8 q 393 -10 336 -10 l 336 -10 q 278 -10 230 0 q 181 10 144 30 q 107 49 82 78 q 56 106 43 143 q 30 179 30 224 l 30 224 q 30 253 37 278 q 43 302 55 323 q 67 344 84 361 q 100 377 120 391 q 140 405 163 415 l 163 415 l 177 393 q 157 377 143 358 q 129 338 120 317 q 111 295 107 272 q 103 248 103 224 l 103 224 q 103 179 119 142 q 134 104 164 77 q 193 50 237 35 q 280 20 336 20 l 336 20 q 387 20 427 41 q 466 61 493 95 q 519 128 532 169 q 545 210 543 252 q 541 293 523 329 l 523 329 q 513 349 498 362 q 482 375 458 375 l 458 375 l 443 375 l 443 385 l 642 385 l 642 375 l 627 375 q 605 375 596 362 q 586 349 590 329 z"},"'":{"ha":170,"x_min":0,"x_max":170,"o":"m 51 700 l 51 700 l 121 714 q 121 695 118 664 q 115 633 107 601 q 98 568 83 541 q 68 513 44 500 l 44 500 l 35 505 q 45 549 49 579 q 53 609 54 637 q 54 664 51 700 z"},"(":{"ha":338,"x_min":0,"x_max":338,"o":"m 303 732 l 309 724 q 269 705 235 649 q 200 592 180 511 q 159 430 160 336 l 160 336 q 162 237 183 150 q 204 62 237 -1 q 270 -65 307 -91 l 307 -91 l 301 -100 q 259 -78 222 -35 q 184 7 155 66 q 125 124 108 193 q 91 261 90 334 l 90 334 q 89 406 106 472 q 123 537 153 590 q 182 643 221 680 q 260 717 303 732 l 303 732 z"},")":{"ha":338,"x_min":0,"x_max":338,"o":"m 30 724 l 30 724 l 36 732 q 79 717 118 680 q 156 643 186 590 q 216 537 233 472 q 249 406 249 334 l 249 334 q 248 261 231 193 q 214 124 184 66 q 154 7 117 -35 q 79 -78 38 -100 l 38 -100 l 32 -91 q 69 -65 102 -1 q 135 62 157 150 q 178 237 179 336 l 179 336 q 180 430 160 511 q 139 592 105 649 q 71 705 30 724 z"},"*":{"ha":386,"x_min":0,"x_max":386,"o":"m 310 505 l 291 474 l 256 466 l 207 555 l 194 601 l 200 605 l 239 579 l 310 505 z m 132 466 l 97 474 l 78 504 l 148 579 l 187 605 l 194 601 l 180 555 l 132 466 z m 39 623 l 36 658 l 60 685 l 152 642 l 190 613 l 187 605 l 140 604 l 39 623 z m 161 759 l 194 773 l 227 759 l 214 658 l 198 613 l 190 613 l 174 658 l 161 759 z m 327 686 l 351 659 l 348 623 l 248 604 l 200 605 l 198 613 l 235 642 l 327 686 z m 191 614 l 197 614 l 200 611 l 201 606 l 200 604 l 195 600 q 194 601 193 601 q 192 601 192 601 l 192 601 l 187 605 l 187 607 l 188 613 l 191 614 z"},"+":{"ha":481,"x_min":0,"x_max":481,"o":"m 40 287 l 40 332 l 442 332 l 442 287 l 40 287 z m 263 109 l 218 109 l 218 511 l 263 511 l 263 109 z"},",":{"ha":185,"x_min":0,"x_max":185,"o":"m 55 65 l 55 65 q 62 79 77 84 q 92 88 108 82 q 123 75 131 55 l 131 55 q 143 27 141 2 q 138 -24 125 -44 q 112 -64 92 -76 q 71 -88 47 -89 l 47 -89 l 45 -81 q 75 -71 84 -54 q 93 -37 90 -19 q 86 -2 78 8 l 78 8 q 72 16 65 24 q 57 32 54 43 q 50 53 55 65 z"},"-":{"ha":380,"x_min":0,"x_max":380,"o":"m 34 292 l 40 314 l 340 314 l 346 292 l 340 269 l 40 269 l 34 292 z"},".":{"ha":179,"x_min":0,"x_max":179,"o":"m 90 -4 l 90 -4 q 71 -4 58 9 q 45 22 45 41 l 45 41 q 45 60 58 73 q 71 86 90 86 l 90 86 q 109 86 122 73 q 135 60 135 41 l 135 41 q 135 22 122 9 q 109 -4 90 -4 z"},"/":{"ha":406,"x_min":0,"x_max":406,"o":"m 7 5 l 367 714 l 399 697 l 38 -14 l 7 5 z"},":":{"ha":179,"x_min":0,"x_max":179,"o":"m 90 379 l 90 379 q 71 379 58 392 q 45 405 45 424 l 45 424 q 45 443 58 456 q 71 469 90 469 l 90 469 q 109 469 122 456 q 135 443 135 424 l 135 424 q 135 405 122 392 q 109 379 90 379 z m 90 -4 l 90 -4 q 71 -4 58 9 q 45 22 45 41 l 45 41 q 45 60 58 73 q 71 86 90 86 l 90 86 q 109 86 122 73 q 135 60 135 41 l 135 41 q 135 22 122 9 q 109 -4 90 -4 z"},";":{"ha":185,"x_min":0,"x_max":185,"o":"m 55 65 l 55 65 q 62 79 77 84 q 92 88 108 82 q 123 75 131 55 l 131 55 q 143 27 141 2 q 138 -24 125 -44 q 112 -64 92 -76 q 71 -88 47 -89 l 47 -89 l 45 -81 q 75 -71 84 -54 q 93 -37 90 -19 q 86 -2 78 8 l 78 8 q 72 16 65 24 q 57 32 54 43 q 50 53 55 65 z m 90 407 l 90 407 q 71 407 58 420 q 45 433 45 452 l 45 452 q 45 471 58 484 q 71 497 90 497 l 90 497 q 109 497 122 484 q 135 471 135 452 l 135 452 q 135 433 122 420 q 109 407 90 407 z"},"<":{"ha":481,"x_min":0,"x_max":481,"o":"m 442 523 l 442 475 l 55 288 l 56 331 l 442 144 l 442 96 l 40 287 l 40 332 l 442 523 z"},"=":{"ha":481,"x_min":0,"x_max":481,"o":"m 40 364 l 40 409 l 442 409 l 442 364 l 40 364 z m 40 189 l 40 234 l 442 234 l 442 189 l 40 189 z"},">":{"ha":481,"x_min":0,"x_max":481,"o":"m 427 288 l 40 475 l 40 523 l 442 332 l 442 287 l 40 96 l 40 144 l 426 331 l 427 288 z"},"?":{"ha":413,"x_min":0,"x_max":413,"o":"m 30 530 l 20 625 q 43 667 81 691 q 119 714 168 714 l 168 714 q 259 714 311 669 q 363 624 363 544 l 363 544 q 363 503 348 472 q 332 441 309 415 q 285 389 260 366 q 234 343 214 319 q 194 295 186 267 l 186 267 q 182 251 180 236 q 177 221 181 206 q 184 191 196 175 l 196 175 l 190 170 q 164 194 155 218 q 146 242 146 266 l 146 266 q 146 294 161 319 q 175 344 196 369 q 217 393 238 419 q 259 445 274 476 q 288 507 288 544 l 288 544 q 288 610 256 647 q 224 684 168 684 l 168 684 q 108 684 74 643 q 39 602 40 530 l 40 530 l 30 530 z m 180 -4 l 180 -4 q 161 -4 148 9 q 135 22 135 41 l 135 41 q 135 60 148 73 q 161 86 180 86 l 180 86 q 199 86 212 73 q 225 60 225 41 l 225 41 q 225 22 212 9 q 199 -4 180 -4 z"},"@":{"ha":977,"x_min":0,"x_max":977,"o":"m 617 688 l 617 688 q 718 675 789 622 q 859 568 893 487 q 926 406 915 309 l 915 309 q 905 223 869 144 q 833 64 772 2 q 710 -60 625 -93 q 540 -127 432 -122 q 324 -118 194 -63 l 194 -63 l 190 -53 q 296 -94 391 -97 q 485 -101 564 -72 q 643 -44 704 11 q 764 66 802 142 q 839 218 850 309 l 850 309 q 862 404 837 479 q 811 554 755 601 q 698 647 617 658 l 617 658 q 542 668 473 655 q 403 641 343 606 q 283 571 236 517 q 188 462 156 390 l 156 390 q 132 336 123 285 q 113 233 118 193 q 122 152 141 128 q 159 103 191 103 l 191 103 q 219 103 247 122 q 274 141 300 171 q 325 200 348 233 q 371 265 390 291 l 390 291 l 517 464 q 517 464 529 479 q 541 494 555 513 q 568 531 572 541 l 572 541 l 579 541 l 565 489 l 421 284 q 377 221 340 174 q 303 126 268 100 q 232 73 191 73 l 191 73 q 150 73 119 98 q 88 123 72 168 q 56 212 60 271 q 63 329 91 395 l 91 395 q 123 471 175 531 q 227 590 296 629 q 364 668 446 684 q 527 700 617 688 z m 373 257 l 561 257 l 554 234 l 365 234 l 373 257 z m 555 137 l 620 137 q 622 112 634 101 q 645 90 660 90 l 660 90 q 659 90 662 90 q 665 90 665 90 l 665 90 l 664 83 l 506 83 l 507 90 l 514 90 q 526 90 541 103 q 556 115 555 137 l 555 137 z m 537 470 l 579 541 l 625 87 l 558 87 l 537 470 z"},"A":{"ha":712,"x_min":0,"x_max":712,"o":"m 339 619 l 359 714 l 655 6 l 570 6 l 339 619 z m 87 73 l 144 73 q 137 53 142 39 q 147 25 159 18 q 170 10 182 10 l 182 10 l 191 10 l 191 0 l -10 0 l -10 10 q -10 10 -5 10 q -1 10 -1 10 l -1 10 q 22 10 47 25 q 71 39 87 73 l 87 73 z m 350 714 l 359 714 l 368 644 l 117 3 l 57 3 l 313 611 q 313 611 319 624 q 324 636 332 654 q 339 672 345 689 q 350 706 350 714 l 350 714 z m 187 273 l 500 273 l 500 243 l 187 243 l 187 273 z m 545 73 l 545 73 l 627 73 q 642 39 667 25 q 692 10 715 10 l 715 10 q 715 10 719 10 q 723 10 723 10 l 723 10 l 723 0 l 498 0 l 498 10 l 507 10 q 526 10 541 27 q 556 43 545 73 z"},"B":{"ha":586,"x_min":0,"x_max":586,"o":"m 153 700 l 153 700 l 259 700 q 329 700 378 679 q 426 658 451 621 q 476 583 476 533 l 476 533 q 476 491 460 460 q 444 428 419 409 q 394 389 366 381 l 366 381 q 419 373 458 346 q 496 319 517 279 q 537 238 537 188 l 537 188 q 537 132 510 90 q 483 47 431 24 q 378 0 304 0 l 304 0 l 193 0 q 193 0 194 9 q 194 18 194 27 q 194 36 194 36 l 194 36 l 300 36 q 352 36 388 55 q 424 73 443 109 q 462 145 462 195 l 462 195 q 462 251 441 286 q 419 321 385 339 q 351 357 312 364 q 272 370 236 370 l 236 370 l 236 379 q 259 379 287 384 q 315 389 341 404 q 367 419 384 449 q 401 478 401 526 l 401 526 q 401 571 385 603 q 368 635 336 652 q 303 668 255 668 l 255 668 l 163 668 q 163 669 161 677 q 158 684 156 692 q 153 700 153 700 z m 137 700 l 202 700 l 202 0 l 137 0 l 137 700 z m 137 73 l 140 73 l 140 0 l 60 0 l 61 10 q 63 10 68 10 q 72 10 73 10 l 73 10 q 99 10 118 29 q 137 47 137 73 l 137 73 z m 140 700 l 140 627 l 137 627 q 137 653 118 672 q 99 690 73 690 l 73 690 q 72 690 68 690 q 63 690 61 690 l 61 690 l 60 700 l 140 700 z"},"C":{"ha":760,"x_min":0,"x_max":760,"o":"m 702 292 l 710 292 l 698 135 q 672 92 633 59 q 593 25 540 6 q 486 -14 417 -14 l 417 -14 q 313 -13 232 32 q 151 77 106 159 q 60 240 60 351 l 60 351 q 60 460 105 542 q 150 623 232 669 q 313 714 423 714 l 423 714 q 497 714 557 695 q 616 675 660 646 l 660 646 l 680 505 l 671 505 q 649 593 581 639 q 513 684 423 684 l 423 684 q 335 684 271 643 q 206 601 171 527 q 135 452 135 352 l 135 352 q 135 252 171 177 q 206 102 270 60 q 333 18 417 16 l 417 16 q 488 16 549 43 q 609 69 650 130 q 691 190 702 292 l 702 292 z"},"D":{"ha":807,"x_min":0,"x_max":807,"o":"m 174 700 l 399 700 q 506 700 587 657 q 667 613 713 534 q 758 455 758 350 l 758 350 q 758 245 713 167 q 667 88 587 44 q 506 0 399 0 l 399 0 l 185 0 l 184 30 q 184 30 206 30 q 227 30 260 30 q 292 30 324 30 q 356 30 378 30 q 399 30 399 30 l 399 30 q 485 30 549 70 q 612 110 648 182 q 683 254 683 350 l 683 350 q 683 446 648 518 q 612 590 548 630 q 484 670 399 670 l 399 670 q 399 670 377 670 q 354 670 321 670 q 287 670 254 670 q 220 670 197 670 q 174 670 174 670 l 174 670 l 174 700 z m 137 700 l 202 700 l 202 0 l 137 0 l 137 700 z m 137 73 l 140 73 l 140 0 l 60 0 l 60 10 q 60 10 67 10 q 73 10 73 10 l 73 10 q 99 10 118 29 q 136 47 137 73 l 137 73 z m 140 700 l 140 627 l 137 627 q 137 653 118 672 q 99 690 73 690 l 73 690 q 73 690 67 690 q 61 690 61 690 l 61 690 l 60 700 l 140 700 z"},"E":{"ha":577,"x_min":0,"x_max":577,"o":"m 137 700 l 202 700 l 202 0 l 137 0 l 137 700 z m 199 31 l 472 31 l 472 0 l 199 0 l 199 31 z m 199 360 l 429 360 l 429 330 l 199 330 l 199 360 z m 199 700 l 472 700 l 472 669 l 199 669 l 199 700 z m 523 162 l 533 162 l 475 0 l 309 0 l 345 31 q 398 31 432 48 q 465 64 486 94 q 507 124 523 162 l 523 162 z m 371 332 l 429 332 l 429 266 l 419 266 l 419 281 q 419 301 405 316 q 391 330 371 330 l 371 330 l 371 332 z m 419 424 l 429 424 l 429 358 l 371 358 l 371 360 q 391 361 405 376 q 419 390 419 410 l 419 410 l 419 424 z m 403 672 l 472 672 l 472 592 l 462 592 l 462 610 q 462 634 445 652 q 428 669 403 670 l 403 670 l 403 672 z m 472 718 l 472 718 l 472 689 l 350 700 q 372 700 397 703 q 421 706 442 710 q 463 714 472 718 z m 137 73 l 140 73 l 140 0 l 60 0 l 60 10 q 60 10 67 10 q 73 10 73 10 l 73 10 q 99 10 118 29 q 136 47 137 73 l 137 73 z m 140 700 l 140 627 l 137 627 q 137 653 118 672 q 99 690 73 690 l 73 690 q 73 690 67 690 q 61 690 61 690 l 61 690 l 60 700 l 140 700 z"},"F":{"ha":541,"x_min":0,"x_max":541,"o":"m 137 700 l 202 700 l 202 0 l 137 0 l 137 700 z m 199 360 l 429 360 l 429 330 l 199 330 l 199 360 z m 199 700 l 472 700 l 472 669 l 199 669 l 199 700 z m 371 332 l 429 332 l 429 266 l 419 266 l 419 281 q 419 301 405 316 q 391 330 371 330 l 371 330 l 371 332 z m 419 424 l 429 424 l 429 358 l 371 358 l 371 360 q 391 361 405 376 q 419 390 419 410 l 419 410 l 419 424 z m 413 672 l 472 672 l 472 605 l 462 605 l 462 620 q 462 640 448 655 q 433 669 413 669 l 413 669 l 413 672 z m 472 718 l 472 718 l 472 689 l 350 700 q 372 700 397 703 q 421 706 442 710 q 463 714 472 718 z m 137 73 l 140 73 l 140 0 l 60 0 l 60 10 q 60 10 67 10 q 73 10 73 10 l 73 10 q 99 10 118 29 q 136 47 137 73 l 137 73 z m 140 700 l 140 627 l 137 627 q 137 653 118 672 q 99 690 73 690 l 73 690 q 73 690 67 690 q 61 690 61 690 l 61 690 l 60 700 l 140 700 z m 199 0 l 199 73 l 202 73 q 203 47 222 29 q 240 10 266 10 l 266 10 q 266 10 272 10 q 278 10 279 10 l 279 10 l 279 0 l 199 0 z"},"G":{"ha":798,"x_min":0,"x_max":798,"o":"m 709 280 l 709 280 l 709 115 q 686 85 647 55 q 608 25 552 6 q 495 -14 419 -14 l 419 -14 q 313 -13 232 33 q 151 78 106 160 q 60 241 60 350 l 60 350 q 60 459 106 541 q 151 623 232 669 q 313 714 419 714 l 419 714 q 474 714 518 705 q 562 696 598 681 q 633 665 662 646 l 662 646 l 682 505 l 673 505 q 658 563 624 603 q 589 642 537 663 q 485 684 419 684 l 419 684 q 335 684 271 642 q 207 600 171 525 q 135 450 135 350 l 135 350 q 135 250 171 175 q 207 100 271 59 q 335 17 419 16 l 419 16 q 463 16 504 27 q 544 37 580 57 q 616 76 644 103 l 644 103 l 645 280 q 645 325 594 325 l 594 325 l 578 325 l 578 335 l 774 335 l 774 325 l 759 325 q 707 325 709 280 z"},"H":{"ha":813,"x_min":0,"x_max":813,"o":"m 611 700 l 676 700 l 676 0 l 611 0 l 611 700 z m 137 700 l 202 700 l 202 0 l 137 0 l 137 700 z m 192 361 l 620 361 l 620 331 l 192 331 l 192 361 z m 137 73 l 140 73 l 140 0 l 60 0 l 60 10 q 60 10 67 10 q 73 10 73 10 l 73 10 q 99 10 118 29 q 136 47 137 73 l 137 73 z m 140 700 l 140 627 l 137 627 q 136 653 118 672 q 99 690 73 690 l 73 690 q 73 690 67 690 q 60 690 60 690 l 60 690 l 60 700 l 140 700 z m 199 0 l 199 73 l 202 73 q 203 47 222 29 q 240 10 266 10 l 266 10 q 266 10 272 10 q 278 10 279 10 l 279 10 l 279 0 l 199 0 z m 202 627 l 199 627 l 199 700 l 279 700 l 279 690 q 278 690 272 690 q 266 690 266 690 l 266 690 q 240 690 222 672 q 203 653 202 627 l 202 627 z m 611 73 l 614 73 l 614 0 l 534 0 l 534 10 q 535 10 541 10 q 547 10 547 10 l 547 10 q 573 10 592 29 q 611 47 611 73 l 611 73 z m 614 700 l 614 627 l 611 627 q 611 653 592 672 q 573 690 547 690 l 547 690 q 547 690 541 690 q 535 690 534 690 l 534 690 l 534 700 l 614 700 z m 673 0 l 673 73 l 676 73 q 677 47 696 29 q 714 10 740 10 l 740 10 q 740 10 747 10 q 753 10 753 10 l 753 10 l 753 0 l 673 0 z m 676 627 l 673 627 l 673 700 l 753 700 l 753 690 q 753 690 747 690 q 740 690 740 690 l 740 690 q 714 690 696 672 q 677 653 676 627 l 676 627 z"},"I":{"ha":338,"x_min":0,"x_max":338,"o":"m 137 700 l 202 700 l 202 0 l 137 0 l 137 700 z m 137 73 l 140 73 l 140 0 l 60 0 l 60 10 q 60 10 67 10 q 73 10 73 10 l 73 10 q 99 10 118 29 q 136 47 137 73 l 137 73 z m 140 700 l 140 627 l 137 627 q 136 653 118 672 q 99 690 73 690 l 73 690 q 73 690 67 690 q 60 690 60 690 l 60 690 l 60 700 l 140 700 z m 199 0 l 199 73 l 202 73 q 203 47 222 29 q 240 10 266 10 l 266 10 q 266 10 272 10 q 278 10 279 10 l 279 10 l 279 0 l 199 0 z m 202 627 l 199 627 l 199 700 l 279 700 l 279 690 q 278 690 272 690 q 266 690 266 690 l 266 690 q 240 690 222 672 q 203 653 202 627 l 202 627 z"},"J":{"ha":324,"x_min":0,"x_max":324,"o":"m 137 700 l 202 700 l 202 0 q 202 -42 188 -78 q 174 -115 149 -142 q 124 -169 91 -184 q 58 -200 20 -200 l 20 -200 l 20 -191 q 53 -179 80 -149 q 106 -120 122 -80 q 137 -40 137 3 l 137 3 l 137 700 z m 140 700 l 140 627 l 137 627 q 136 653 118 672 q 99 690 73 690 l 73 690 q 73 690 67 690 q 60 690 60 690 l 60 690 l 60 700 l 140 700 z m 202 627 l 199 627 l 199 700 l 279 700 l 279 690 q 279 690 273 690 q 266 690 266 690 l 266 690 q 240 690 222 672 q 203 653 202 627 l 202 627 z"},"K":{"ha":657,"x_min":0,"x_max":657,"o":"m 234 348 l 289 385 l 573 51 q 594 31 616 21 q 637 11 668 10 l 668 10 l 668 0 l 625 0 q 615 0 597 2 q 578 3 557 9 q 535 14 514 26 q 492 37 475 57 l 475 57 q 475 57 458 78 q 440 99 413 132 q 385 165 355 203 q 324 240 297 273 q 269 306 252 327 q 234 348 234 348 l 234 348 z m 509 693 l 578 693 l 279 348 l 234 348 l 509 693 z m 643 700 l 647 700 l 647 691 l 643 691 q 610 691 582 678 q 553 665 533 642 l 533 642 l 470 644 q 483 661 475 676 q 466 691 446 691 l 446 691 l 436 691 l 436 700 l 643 700 z m 137 700 l 202 700 l 202 0 l 137 0 l 137 700 z m 137 73 l 140 73 l 140 0 l 60 0 l 60 10 q 60 10 67 10 q 73 10 73 10 l 73 10 q 99 10 118 29 q 136 47 137 73 l 137 73 z m 140 700 l 140 627 l 137 627 q 136 653 118 672 q 99 690 73 690 l 73 690 q 73 690 67 690 q 60 690 60 690 l 60 690 l 60 700 l 140 700 z m 199 0 l 199 73 l 202 73 q 203 47 222 29 q 240 10 266 10 l 266 10 q 266 10 272 10 q 278 10 279 10 l 279 10 l 279 0 l 199 0 z m 202 627 l 199 627 l 199 700 l 279 700 l 279 690 q 278 690 272 690 q 266 690 266 690 l 266 690 q 240 690 222 672 q 203 653 202 627 l 202 627 z"},"L":{"ha":562,"x_min":0,"x_max":562,"o":"m 137 700 l 202 700 l 202 0 l 137 0 l 137 700 z m 199 31 l 472 31 l 472 0 l 199 0 l 199 31 z m 523 162 l 533 162 l 475 0 l 309 0 l 345 31 q 398 31 432 48 q 465 64 486 94 q 507 124 523 162 l 523 162 z m 137 73 l 140 73 l 140 0 l 60 0 l 60 10 q 60 10 67 10 q 73 10 73 10 l 73 10 q 99 10 118 29 q 136 47 137 73 l 137 73 z m 140 700 l 140 627 l 137 627 q 136 653 118 672 q 99 690 73 690 l 73 690 q 73 690 67 690 q 60 690 60 690 l 60 690 l 60 700 l 140 700 z m 202 627 l 199 627 l 199 700 l 279 700 l 279 690 q 278 690 272 690 q 266 690 266 690 l 266 690 q 240 690 222 672 q 203 653 202 627 l 202 627 z"},"M":{"ha":931,"x_min":0,"x_max":931,"o":"m 440 49 l 741 714 l 749 647 l 498 88 q 498 88 491 71 q 483 54 475 31 q 467 7 464 -14 l 464 -14 l 454 -14 l 440 49 z m 104 73 l 126 73 l 126 0 l 15 0 l 15 10 q 16 10 24 10 q 31 10 31 10 l 31 10 q 58 10 79 27 q 100 43 104 73 l 104 73 z m 148 57 l 155 57 q 155 56 155 55 q 155 54 155 52 l 155 52 q 155 36 167 23 q 178 9 194 9 l 194 9 l 209 9 l 209 0 l 148 0 l 148 57 z m 96 0 l 179 714 l 189 714 l 209 655 l 150 0 l 96 0 z m 170 602 l 189 714 l 477 91 l 454 -14 l 170 602 z m 741 714 l 750 714 l 836 0 l 758 0 l 703 606 l 741 714 z m 806 0 l 806 73 l 827 73 q 832 43 853 27 q 874 10 900 10 l 900 10 q 900 10 908 10 q 916 10 916 10 l 916 10 l 916 0 l 806 0 z m 753 57 l 753 57 l 760 57 l 760 0 l 699 0 l 699 9 l 714 9 q 731 9 742 23 q 753 36 753 52 l 753 52 q 753 54 753 55 q 753 56 753 57 z"},"N":{"ha":841,"x_min":0,"x_max":841,"o":"m 135 605 l 126 715 l 707 95 l 716 -14 l 135 605 z m 125 71 l 128 71 l 128 0 l 45 0 l 45 10 q 45 10 54 10 q 63 10 64 10 l 64 10 q 89 10 107 28 q 125 46 125 71 l 125 71 z m 168 71 l 171 71 q 171 46 189 28 q 207 10 232 10 l 232 10 q 233 10 242 10 q 251 10 251 10 l 251 10 l 251 0 l 168 0 l 168 71 z m 116 715 l 126 715 l 170 659 l 171 0 l 125 0 l 125 590 q 125 641 121 678 q 116 715 116 715 l 116 715 z m 671 700 l 716 700 l 716 114 q 716 82 718 53 q 720 23 723 5 q 725 -14 725 -14 l 725 -14 l 716 -14 l 671 39 l 671 700 z m 713 700 l 796 700 l 796 690 q 796 690 787 690 q 778 690 778 690 l 778 690 q 753 690 735 673 q 717 655 716 629 l 716 629 l 713 629 l 713 700 z m 590 690 l 590 700 l 673 700 l 673 629 l 671 629 q 670 655 653 673 q 635 690 609 690 l 609 690 q 609 690 600 690 q 591 690 590 690 l 590 690 z"},"O":{"ha":838,"x_min":0,"x_max":838,"o":"m 429 714 l 429 714 q 536 714 617 669 q 698 623 744 541 q 789 459 789 350 l 789 350 q 789 241 744 159 q 698 77 617 32 q 536 -14 429 -14 l 429 -14 q 323 -14 242 32 q 161 77 116 159 q 70 241 70 350 l 70 350 q 70 459 116 541 q 161 623 242 669 q 323 714 429 714 z m 429 16 l 429 16 q 514 16 578 58 q 641 100 677 175 q 712 250 712 350 l 712 350 q 712 450 677 525 q 641 600 578 642 q 514 684 429 684 l 429 684 q 345 684 282 642 q 218 600 183 525 q 147 450 147 350 l 147 350 q 147 250 183 175 q 218 100 282 58 q 345 16 429 16 z"},"P":{"ha":577,"x_min":0,"x_max":577,"o":"m 189 700 l 189 700 l 321 700 q 385 700 431 677 q 477 654 502 611 q 527 567 527 507 l 527 507 q 527 461 509 425 q 491 388 461 363 q 431 338 393 326 q 355 313 315 316 q 274 319 236 339 l 236 339 l 236 349 q 236 349 253 347 q 270 344 297 346 q 323 347 353 357 q 382 366 408 390 q 433 414 446 457 l 446 457 q 449 468 451 485 q 453 501 452 517 l 452 517 q 451 586 416 628 q 381 670 317 670 l 317 670 l 199 670 q 199 670 197 678 q 194 685 192 693 q 189 700 189 700 z m 137 700 l 202 700 l 202 0 l 137 0 l 137 700 z m 137 73 l 140 73 l 140 0 l 60 0 l 60 10 q 60 10 67 10 q 73 10 73 10 l 73 10 q 99 10 118 29 q 136 47 137 73 l 137 73 z m 140 700 l 140 627 l 137 627 q 137 653 118 672 q 99 690 73 690 l 73 690 q 73 690 67 690 q 61 690 61 690 l 61 690 l 60 700 l 140 700 z m 199 0 l 199 73 l 202 73 q 203 47 222 29 q 240 10 266 10 l 266 10 q 266 10 273 10 q 279 10 279 10 l 279 10 l 279 0 l 199 0 z"},"Q":{"ha":837,"x_min":0,"x_max":837,"o":"m 408 -14 l 408 -14 l 418 12 q 436 12 466 5 q 495 -2 534 -14 q 573 -27 621 -45 q 668 -63 722 -85 q 776 -107 836 -133 l 836 -133 q 892 -157 958 -168 q 1023 -180 1090 -176 q 1157 -172 1218 -149 q 1278 -127 1324 -84 l 1324 -84 l 1328 -89 q 1321 -108 1295 -135 q 1268 -163 1224 -188 q 1180 -214 1121 -228 q 1061 -243 988 -237 q 914 -231 828 -194 l 828 -194 q 782 -174 730 -147 q 678 -120 623 -93 q 568 -66 514 -44 q 459 -23 408 -14 z m 419 714 l 419 714 q 525 714 606 669 q 686 623 732 541 q 777 459 777 350 l 777 350 q 777 241 732 159 q 686 77 605 32 q 524 -14 419 -14 l 419 -14 q 313 -14 232 32 q 151 77 106 159 q 60 241 60 350 l 60 350 q 60 459 106 541 q 151 623 232 669 q 313 714 419 714 z m 419 16 l 419 16 q 504 16 568 58 q 631 100 667 175 q 702 250 702 350 l 702 350 q 702 450 667 525 q 631 600 568 642 q 504 684 419 684 l 419 684 q 334 684 270 642 q 206 600 171 525 q 135 450 135 350 l 135 350 q 135 250 171 175 q 207 100 271 58 q 335 16 419 16 z"},"R":{"ha":677,"x_min":0,"x_max":677,"o":"m 189 700 l 189 700 l 330 700 q 375 700 412 687 q 448 674 473 650 q 498 625 512 591 q 525 556 525 512 l 525 512 q 525 464 503 420 q 480 376 442 349 q 403 321 355 321 l 355 321 q 372 314 392 293 q 412 271 427 251 l 427 251 q 427 251 441 232 q 454 212 475 184 q 495 156 516 129 q 537 102 552 86 l 552 86 q 572 64 592 47 q 612 30 636 20 q 659 10 688 10 l 688 10 l 688 0 l 633 0 q 587 0 554 14 q 520 28 497 49 q 474 69 458 88 l 458 88 q 455 92 442 111 q 428 130 410 157 q 391 183 373 209 q 355 235 342 254 q 329 272 327 275 l 327 275 q 308 300 285 321 q 262 342 235 342 l 235 342 l 235 352 q 235 352 251 352 q 266 351 288 352 l 288 352 q 314 353 345 360 q 376 367 403 389 q 430 411 444 456 l 444 456 q 447 467 449 484 q 451 500 450 516 l 450 516 q 449 584 416 625 q 382 665 326 668 l 326 668 q 298 670 269 670 q 239 669 219 669 q 199 669 199 669 l 199 669 q 199 670 197 678 q 194 685 192 693 q 189 700 189 700 z m 137 700 l 202 700 l 202 0 l 137 0 l 137 700 z m 137 73 l 140 73 l 140 0 l 60 0 l 60 10 q 60 10 67 10 q 73 10 73 10 l 73 10 q 99 10 118 29 q 136 47 137 73 l 137 73 z m 140 700 l 140 627 l 137 627 q 136 653 118 672 q 99 690 73 690 l 73 690 q 73 690 67 690 q 60 690 60 690 l 60 690 l 60 700 l 140 700 z m 199 0 l 199 73 l 202 73 q 202 47 221 29 q 240 10 266 10 l 266 10 q 266 10 272 10 q 278 10 278 10 l 278 10 l 278 0 l 199 0 z"},"S":{"ha":475,"x_min":0,"x_max":475,"o":"m 251 714 l 251 714 q 267 714 286 712 q 304 710 322 707 q 339 703 354 700 q 368 696 376 692 l 376 692 l 376 581 l 367 581 q 367 629 334 657 q 301 684 254 684 l 254 684 q 199 684 165 650 q 131 615 131 569 l 131 569 q 131 550 140 525 q 148 499 171 477 l 171 477 l 368 295 q 398 267 408 235 q 418 203 418 173 l 418 173 q 418 90 368 38 q 317 -14 231 -14 l 231 -14 q 207 -14 175 -9 q 142 -4 112 9 q 81 21 61 41 l 61 41 q 58 57 58 81 q 58 105 62 132 q 66 158 73 180 l 73 180 l 82 180 q 77 129 95 91 q 113 53 148 34 q 182 14 226 16 l 226 16 q 281 19 321 55 q 360 90 360 150 l 360 150 q 360 179 350 203 q 340 226 321 243 l 321 243 l 129 421 q 99 449 87 483 q 75 516 75 545 l 75 545 q 75 587 95 626 q 115 665 155 690 q 194 714 251 714 z m 300 704 l 376 704 l 376 683 l 300 683 l 300 704 z"},"T":{"ha":618,"x_min":0,"x_max":618,"o":"m 277 697 l 342 697 l 342 0 l 277 0 l 277 697 z m 20 701 l 599 701 l 599 671 l 20 671 l 20 701 z m 530 674 l 599 674 l 599 593 l 589 594 l 589 611 q 589 636 572 653 q 554 670 530 671 l 530 671 l 530 674 z m 599 719 l 599 719 l 599 690 l 477 701 q 499 701 524 704 q 548 707 569 711 q 590 715 599 719 z m 277 73 l 280 73 l 280 0 l 200 0 l 200 10 q 200 10 207 10 q 213 10 213 10 l 213 10 q 239 10 258 29 q 276 47 277 73 l 277 73 z m 339 0 l 339 73 l 342 73 q 343 47 362 29 q 380 10 406 10 l 406 10 q 406 10 413 10 q 419 10 419 10 l 419 10 l 419 0 l 339 0 z m 20 674 l 89 674 l 89 671 q 64 670 47 653 q 30 636 30 611 l 30 611 l 30 594 l 20 593 l 20 674 z m 20 690 l 20 719 q 30 715 51 711 q 71 707 96 704 q 121 701 142 701 l 142 701 l 20 690 z"},"U":{"ha":785,"x_min":0,"x_max":785,"o":"m 119 700 l 184 700 l 184 260 q 184 188 211 133 q 237 78 285 48 q 333 17 396 17 l 396 17 q 463 17 513 46 q 563 75 591 127 q 619 178 619 247 l 619 247 l 619 700 l 666 700 l 666 247 q 666 169 633 111 q 599 52 538 19 q 477 -14 396 -14 l 396 -14 q 313 -14 251 19 q 188 51 154 110 q 119 168 119 246 l 119 246 l 119 700 z m 50 700 l 122 700 l 122 640 l 119 640 q 119 662 104 676 q 88 690 66 690 l 66 690 q 66 690 58 690 q 50 690 50 690 l 50 690 l 50 700 z m 182 700 l 253 700 l 253 690 q 253 690 245 690 q 237 690 237 690 l 237 690 q 215 690 200 676 q 184 662 184 640 l 184 640 l 182 640 l 182 700 z m 550 700 l 622 700 l 622 640 l 619 640 q 619 662 604 676 q 588 690 566 690 l 566 690 q 566 690 558 690 q 550 690 550 690 l 550 690 l 550 700 z m 664 700 l 735 700 l 735 690 q 735 690 727 690 q 719 690 719 690 l 719 690 q 697 690 682 676 q 666 662 666 640 l 666 640 l 664 640 l 664 700 z"},"V":{"ha":740,"x_min":0,"x_max":740,"o":"m 387 81 l 367 -14 l 57 694 l 142 694 l 387 81 z m 376 -14 l 367 -14 l 358 56 l 624 697 l 684 697 l 413 89 q 413 89 408 77 q 402 64 395 46 q 387 28 382 11 q 376 -6 376 -14 l 376 -14 z m 653 627 l 596 628 q 607 658 592 674 q 577 690 558 690 l 558 690 l 549 690 l 549 700 l 750 700 l 750 690 q 750 690 746 690 q 741 690 741 690 l 741 690 q 719 690 694 676 q 669 661 653 627 l 653 627 z m 169 628 l 169 628 l 86 627 q 71 661 46 676 q 21 690 -2 690 l -2 690 q -2 690 -6 690 q -10 690 -10 690 l -10 690 l -10 700 l 215 700 l 215 690 l 206 690 q 187 690 173 674 q 158 658 169 628 z"},"W":{"ha":982,"x_min":0,"x_max":982,"o":"m 313 -12 l 63 694 l 144 694 l 330 97 l 313 -12 z m 502 716 l 511 716 l 519 635 l 343 99 q 343 99 338 82 q 333 64 328 39 q 323 13 322 -12 l 322 -12 l 313 -12 l 295 77 l 502 716 z m 477 607 l 511 715 l 721 126 l 699 -12 l 477 607 z m 861 694 l 917 694 l 730 99 q 730 99 725 81 q 720 63 715 38 q 709 12 708 -12 l 708 -12 l 699 -12 l 687 87 l 861 694 z m 896 628 l 842 628 q 850 658 837 674 q 824 690 804 690 l 804 690 l 795 690 l 795 700 l 992 700 l 992 690 q 992 690 988 690 q 984 690 984 690 l 984 690 q 961 690 934 676 q 907 661 896 628 l 896 628 z m 165 628 l 165 628 l 86 628 q 74 661 48 676 q 21 690 -2 690 l -2 690 q -2 690 -6 690 q -10 690 -10 690 l -10 690 l -10 700 l 212 700 l 212 690 l 203 690 q 184 690 170 674 q 155 658 165 628 z"},"X":{"ha":662,"x_min":0,"x_max":662,"o":"m 78 700 l 156 700 l 601 1 l 521 1 l 78 700 z m 106 69 l 169 72 q 160 58 164 44 q 168 29 180 20 q 191 10 204 10 l 204 10 q 204 10 211 10 q 217 10 217 10 l 217 10 l 217 0 l -10 0 l -10 10 l 4 10 q 36 10 63 28 q 90 46 106 69 l 106 69 z m 60 1 l 309 372 l 332 329 l 124 1 l 60 1 z m 476 72 l 476 72 l 558 68 q 574 45 601 28 q 628 10 659 10 l 659 10 l 673 10 l 673 0 l 429 0 l 429 10 q 429 10 435 10 q 441 10 441 10 l 441 10 q 462 10 476 30 q 489 50 476 72 z m 7 700 l 249 700 l 249 690 q 249 690 243 690 q 237 690 237 690 l 237 690 q 224 690 213 681 q 201 671 198 657 q 194 642 202 628 l 202 628 l 122 631 q 106 654 80 672 q 53 690 21 690 l 21 690 l 7 690 l 7 700 z m 521 700 l 586 700 l 351 354 l 317 378 l 521 700 z m 429 700 l 654 700 l 654 690 l 640 690 q 609 690 583 672 q 556 654 539 631 l 539 631 l 475 628 q 484 642 481 657 q 477 671 466 681 q 455 690 441 690 l 441 690 q 441 690 435 690 q 429 690 429 690 l 429 690 l 429 700 z"},"Y":{"ha":661,"x_min":0,"x_max":661,"o":"m 64 699 l 150 699 l 346 334 l 303 299 l 64 699 z m 295 322 l 360 322 l 360 0 l 295 0 l 295 322 z m 317 312 l 538 699 l 599 699 l 353 301 l 317 312 z m 557 631 l 497 628 q 506 642 502 657 q 498 671 487 681 q 476 690 462 690 l 462 690 q 462 690 456 690 q 450 690 450 690 l 450 690 l 450 700 l 672 700 l 672 690 l 658 690 q 627 690 600 672 q 573 654 557 631 l 557 631 z m 188 628 l 188 628 l 104 631 q 90 654 63 672 q 36 690 4 690 l 4 690 l -10 690 l -10 700 l 236 700 l 236 690 q 236 690 230 690 q 223 690 223 690 l 223 690 q 201 690 190 670 q 178 649 188 628 z m 295 73 l 297 73 l 297 0 l 218 0 l 218 10 q 218 10 224 10 q 230 10 231 10 l 231 10 q 257 10 276 29 q 294 47 295 73 l 295 73 z m 357 0 l 357 73 l 360 73 q 360 47 379 29 q 398 10 424 10 l 424 10 q 424 10 430 10 q 436 10 436 10 l 436 10 l 436 0 l 357 0 z"},"Z":{"ha":651,"x_min":0,"x_max":651,"o":"m 580 714 l 580 714 q 580 714 580 710 q 580 705 580 705 l 580 705 l 134 0 l 60 0 l 60 9 l 480 671 l 74 671 l 74 701 l 474 701 q 494 701 517 703 q 539 705 557 708 q 574 711 580 714 z m 124 30 l 587 30 l 581 0 l 124 0 l 124 30 z m 607 154 l 617 154 l 584 0 l 452 0 l 459 25 l 470 30 q 526 30 560 66 q 593 102 607 154 l 607 154 z m 143 674 l 143 671 q 118 670 101 653 q 84 636 84 611 l 84 611 l 84 593 l 74 593 l 74 674 l 143 674 z m 74 690 l 74 719 q 84 715 105 711 q 125 707 150 704 q 175 701 196 701 l 196 701 l 74 690 z"},"[":{"ha":332,"x_min":0,"x_max":332,"o":"m 120 -90 l 120 722 l 289 722 l 289 712 l 185 692 l 185 -60 l 292 -80 l 292 -90 l 120 -90 z"},"\\":{"ha":406,"x_min":0,"x_max":406,"o":"m 7 697 l 38 714 l 399 5 l 368 -14 l 7 697 z"},"]":{"ha":332,"x_min":0,"x_max":332,"o":"m 43 722 l 212 722 l 212 -90 l 40 -90 l 40 -80 l 147 -60 l 147 692 l 43 712 l 43 722 z"},"^":{"ha":523,"x_min":0,"x_max":523,"o":"m 232 371 l 35 182 l 98 182 l 262 336 l 425 182 l 488 182 l 292 371 l 232 371 z"},"_":{"ha":500,"x_min":0,"x_max":500,"o":"m 0 -90 l 0 -60 l 500 -60 l 500 -90 l 0 -90 z"},"`":{"ha":439,"x_min":0,"x_max":439,"o":"m 240 753 l 240 753 l 233 746 q 206 759 179 773 q 152 786 126 801 q 99 816 72 831 l 72 831 q 80 847 91 860 q 101 873 113 884 l 113 884 q 134 864 155 843 q 176 821 198 799 q 219 777 240 753 z"},"a":{"ha":663,"x_min":0,"x_max":663,"o":"m 319 525 l 336 614 l 611 6 l 532 6 l 319 525 z m 84 73 l 143 73 q 132 43 146 27 q 160 10 178 10 l 178 10 l 186 10 l 186 0 l -5 0 l -5 10 q -5 10 -1 10 q 3 10 3 10 l 3 10 q 24 10 46 25 q 68 39 84 73 l 84 73 z m 327 614 l 336 614 l 343 545 l 114 3 l 51 3 l 288 511 q 288 511 294 523 q 299 535 307 553 q 314 570 320 587 q 326 604 327 614 l 327 614 z m 189 233 l 454 233 l 454 203 l 189 203 l 189 233 z m 505 73 l 505 73 l 581 73 q 596 39 618 25 q 640 10 660 10 l 660 10 q 660 10 664 10 q 668 10 668 10 l 668 10 l 668 0 l 463 0 l 463 10 l 471 10 q 488 10 502 27 q 516 43 505 73 z"},"b":{"ha":570,"x_min":0,"x_max":570,"o":"m 140 600 l 140 600 l 259 600 q 286 600 322 595 q 357 590 390 575 q 423 560 445 530 q 467 500 467 450 l 467 450 q 467 420 451 394 q 435 368 410 351 q 385 333 357 326 l 357 326 q 406 321 444 299 q 481 276 503 242 q 525 208 525 168 l 525 168 q 525 119 505 87 q 484 54 451 35 q 418 16 379 8 q 340 0 303 0 l 303 0 l 181 0 q 181 0 182 8 q 182 15 182 23 q 182 30 182 30 l 182 30 l 302 30 q 345 30 380 45 q 414 59 434 90 q 454 121 454 168 l 454 168 q 454 216 433 246 q 412 275 378 291 q 344 306 303 312 q 262 317 221 317 l 221 317 l 221 327 q 248 327 279 331 q 310 335 337 348 q 363 360 380 385 q 397 409 397 450 l 397 450 q 397 513 360 542 q 323 570 258 570 l 258 570 l 149 570 q 149 571 147 579 q 144 586 142 593 q 140 600 140 600 z m 127 600 l 190 600 l 190 0 l 127 0 l 127 600 z m 127 64 l 130 64 l 130 0 l 55 0 l 55 10 q 55 10 61 10 q 67 10 67 10 l 67 10 q 93 10 110 26 q 126 42 127 64 l 127 64 z m 130 600 l 130 536 l 127 536 q 126 560 110 575 q 93 590 67 590 l 67 590 q 67 590 61 590 q 55 590 55 590 l 55 590 l 55 600 l 130 600 z"},"c":{"ha":705,"x_min":0,"x_max":705,"o":"m 657 252 l 666 252 l 655 115 q 629 75 587 46 q 545 17 492 2 q 439 -14 380 -14 l 380 -14 q 279 -13 205 25 q 130 63 90 133 q 50 203 50 300 l 50 300 q 50 398 90 468 q 130 538 205 576 q 279 614 380 614 l 380 614 q 442 614 505 598 q 568 582 614 553 l 614 553 l 636 412 l 627 412 q 605 504 539 544 q 472 584 379 584 l 379 584 q 300 584 243 550 q 185 515 154 452 q 122 388 122 300 l 122 300 q 122 214 154 151 q 185 87 243 53 q 301 18 380 17 l 380 17 q 455 17 516 42 q 576 66 614 118 q 652 170 657 252 l 657 252 z"},"d":{"ha":760,"x_min":0,"x_max":760,"o":"m 164 600 l 389 600 q 488 600 560 564 q 632 528 671 461 q 710 393 710 300 l 710 300 q 710 207 671 140 q 632 73 560 37 q 488 0 389 0 l 389 0 l 176 0 l 174 30 q 244 30 292 30 q 339 30 364 30 q 389 30 389 30 l 389 30 q 505 30 572 103 q 638 175 638 300 l 638 300 q 638 425 572 498 q 505 570 389 570 l 389 570 q 389 570 363 570 q 337 570 287 570 q 237 570 164 570 l 164 570 l 164 600 z m 125 600 l 190 600 l 190 0 l 125 0 l 125 600 z m 125 65 l 127 65 l 127 0 l 55 0 l 55 10 q 55 10 62 10 q 68 10 68 10 l 68 10 q 92 10 108 27 q 124 43 125 65 l 125 65 z m 127 600 l 127 535 l 125 535 q 124 559 108 575 q 91 590 67 590 l 67 590 q 67 590 61 590 q 55 590 55 590 l 55 590 l 55 600 l 127 600 z"},"e":{"ha":546,"x_min":0,"x_max":546,"o":"m 127 600 l 191 600 l 191 0 l 127 0 l 127 600 z m 189 31 l 460 31 l 458 0 l 189 0 l 189 31 z m 189 315 l 413 315 l 413 285 l 189 285 l 189 315 z m 189 600 l 459 600 l 459 569 l 189 569 l 189 600 z m 506 143 l 516 143 l 461 0 l 309 0 l 343 31 q 393 31 424 46 q 454 60 473 86 q 492 111 506 143 l 506 143 z m 361 287 l 413 287 l 413 230 l 402 230 l 402 243 q 402 260 392 273 q 382 285 361 285 l 361 285 l 361 287 z m 402 370 l 413 370 l 413 313 l 361 313 l 361 315 q 382 315 392 328 q 402 340 402 357 l 402 357 l 402 370 z m 398 572 l 459 572 l 459 503 l 448 503 l 448 518 q 448 539 435 554 q 421 569 398 569 l 398 569 l 398 572 z m 459 616 l 459 616 l 459 590 l 345 600 q 376 600 411 606 q 446 611 459 616 z m 127 64 l 129 64 l 142 0 l 55 0 l 55 10 q 55 10 62 10 q 69 10 69 10 l 69 10 q 94 10 110 26 q 126 42 127 64 l 127 64 z m 142 600 l 129 537 l 127 537 q 126 560 110 575 q 94 590 69 590 l 69 590 q 69 590 62 590 q 55 590 55 590 l 55 590 l 55 600 l 142 600 z"},"f":{"ha":523,"x_min":0,"x_max":523,"o":"m 128 600 l 191 600 l 191 0 l 128 0 l 128 600 z m 189 315 l 416 315 l 416 285 l 189 285 l 189 315 z m 189 600 l 463 600 l 463 569 l 189 569 l 189 600 z m 364 287 l 416 287 l 416 230 l 405 230 l 405 243 q 405 260 396 273 q 386 285 364 285 l 364 285 l 364 287 z m 405 370 l 416 370 l 416 313 l 364 313 l 364 315 q 386 315 396 328 q 405 340 405 357 l 405 357 l 405 370 z m 402 572 l 463 572 l 463 503 l 452 503 l 452 518 q 452 539 439 554 q 425 569 402 569 l 402 569 l 402 572 z m 463 616 l 463 616 l 463 590 l 348 600 q 369 600 392 603 q 415 605 435 609 q 454 613 463 616 z m 128 64 l 130 64 l 143 0 l 55 0 l 55 10 q 55 10 62 10 q 69 10 69 10 l 69 10 q 94 10 111 26 q 127 42 128 64 l 128 64 z m 143 600 l 130 537 l 128 537 q 127 560 111 575 q 94 590 69 590 l 69 590 q 69 590 62 590 q 55 590 55 590 l 55 590 l 55 600 l 143 600 z m 176 0 l 189 64 l 191 64 q 192 42 209 26 q 225 10 250 10 l 250 10 q 250 10 257 10 q 264 10 264 10 l 264 10 l 264 0 l 176 0 z"},"g":{"ha":742,"x_min":0,"x_max":742,"o":"m 378 614 l 378 614 q 424 614 465 608 q 505 601 542 588 q 578 574 611 553 l 611 553 l 633 412 l 624 412 q 610 471 579 509 q 547 547 497 566 q 447 584 377 584 l 377 584 q 301 584 244 550 q 186 515 154 452 q 122 388 122 300 l 122 300 q 122 213 154 149 q 186 85 244 51 q 302 16 378 16 l 378 16 q 420 16 458 25 q 496 34 532 54 q 567 73 598 103 l 598 103 l 599 236 q 600 255 588 265 q 575 275 553 275 l 553 275 l 539 275 l 539 285 l 722 285 l 722 275 l 708 275 q 663 275 663 235 l 663 235 l 663 115 q 640 86 600 56 q 560 26 505 6 q 449 -14 378 -14 l 378 -14 q 279 -13 206 25 q 132 63 91 133 q 50 203 50 300 l 50 300 q 50 398 91 468 q 132 538 206 576 q 280 614 378 614 z"},"h":{"ha":746,"x_min":0,"x_max":746,"o":"m 558 600 l 622 600 l 622 0 l 558 0 l 558 600 z m 125 600 l 189 600 l 189 0 l 125 0 l 125 600 z m 178 311 l 568 311 l 568 281 l 178 281 l 178 311 z m 125 64 l 128 64 l 128 0 l 55 0 l 55 10 q 55 10 61 10 q 67 10 67 10 l 67 10 q 91 10 108 26 q 124 42 125 64 l 125 64 z m 186 0 l 186 64 l 189 64 q 189 42 206 26 q 223 10 247 10 l 247 10 q 247 10 253 10 q 259 10 259 10 l 259 10 l 259 0 l 186 0 z m 189 536 l 186 536 l 186 600 l 259 600 l 259 590 q 259 590 253 590 q 247 590 247 590 l 247 590 q 223 590 206 575 q 189 559 189 536 l 189 536 z m 128 600 l 128 536 l 125 536 q 124 559 108 575 q 91 590 67 590 l 67 590 q 67 590 61 590 q 55 590 55 590 l 55 590 l 55 600 l 128 600 z m 558 64 l 561 64 l 561 0 l 488 0 l 488 10 q 488 10 494 10 q 500 10 500 10 l 500 10 q 524 10 541 26 q 557 42 558 64 l 558 64 z m 619 0 l 619 64 l 622 64 q 623 42 640 26 q 656 10 680 10 l 680 10 q 680 10 686 10 q 692 10 692 10 l 692 10 l 692 0 l 619 0 z m 622 536 l 619 536 l 619 600 l 692 600 l 692 590 q 692 590 686 590 q 680 590 680 590 l 680 590 q 656 590 640 575 q 623 559 622 536 l 622 536 z m 561 600 l 561 536 l 558 536 q 557 559 541 575 q 524 590 500 590 l 500 590 q 500 590 494 590 q 488 590 488 590 l 488 590 l 488 600 l 561 600 z"},"i":{"ha":336,"x_min":0,"x_max":336,"o":"m 137 600 l 200 600 l 200 0 l 137 0 l 137 600 z m 137 64 l 140 64 l 140 0 l 55 0 l 55 10 q 55 10 62 10 q 69 10 69 10 l 69 10 q 97 10 117 26 q 136 42 137 64 l 137 64 z m 197 0 l 197 64 l 200 64 q 201 42 221 26 q 240 10 268 10 l 268 10 q 268 10 275 10 q 281 10 281 10 l 281 10 l 282 0 l 197 0 z m 200 536 l 197 536 l 197 600 l 282 600 l 281 590 q 281 590 275 590 q 268 590 268 590 l 268 590 q 240 590 221 575 q 201 559 200 536 l 200 536 z m 140 600 l 140 536 l 137 536 q 136 559 117 575 q 97 590 69 590 l 69 590 q 68 590 62 590 q 55 590 55 590 l 55 590 l 55 600 l 140 600 z"},"j":{"ha":309,"x_min":0,"x_max":309,"o":"m 132 600 l 196 600 l 196 0 q 196 -36 182 -68 q 167 -101 142 -125 q 116 -150 83 -164 q 50 -178 13 -178 l 13 -178 l 13 -168 q 45 -158 72 -132 q 99 -106 116 -71 q 132 -37 132 0 l 132 0 l 132 600 z m 54 600 l 136 600 l 136 536 l 133 536 q 132 559 113 575 q 94 590 67 590 l 67 590 l 55 590 l 54 600 z m 193 600 l 274 600 l 274 590 l 261 590 q 235 590 216 575 q 197 559 196 536 l 196 536 l 193 536 l 193 600 z"},"k":{"ha":624,"x_min":0,"x_max":624,"o":"m 225 298 l 281 335 l 542 51 q 559 31 578 21 q 597 11 629 10 l 629 10 l 629 0 l 592 0 q 580 0 563 2 q 545 3 525 9 q 504 14 484 26 q 463 37 445 57 l 445 57 q 445 57 430 75 q 414 92 389 120 q 364 147 336 178 q 307 208 282 236 q 257 263 241 281 q 225 298 225 298 l 225 298 z m 476 593 l 548 593 l 272 298 l 225 298 l 476 593 z m 609 600 l 613 600 l 613 590 l 609 590 q 578 590 552 580 q 525 570 508 550 l 508 550 l 440 551 q 451 565 444 578 q 436 590 418 590 l 418 590 l 409 590 l 409 600 l 609 600 z m 126 600 l 190 600 l 190 0 l 126 0 l 126 600 z m 126 64 l 128 64 l 128 0 l 55 0 l 55 10 q 55 10 61 10 q 67 10 67 10 l 67 10 q 91 10 108 26 q 125 42 126 64 l 126 64 z m 187 0 l 187 64 l 190 64 q 190 42 207 26 q 224 10 249 10 l 249 10 q 249 10 255 10 q 260 10 260 10 l 260 10 l 260 0 l 187 0 z m 190 536 l 187 536 l 187 600 l 260 600 l 260 590 q 260 590 255 590 q 249 590 248 590 l 248 590 q 224 590 207 575 q 190 559 190 536 l 190 536 z m 128 600 l 128 536 l 126 536 q 125 559 108 575 q 91 590 67 590 l 67 590 q 67 590 61 590 q 55 590 55 590 l 55 590 l 55 600 l 128 600 z"},"l":{"ha":536,"x_min":0,"x_max":536,"o":"m 127 600 l 191 600 l 191 0 l 127 0 l 127 600 z m 189 31 l 460 31 l 458 0 l 189 0 l 189 31 z m 506 143 l 516 143 l 461 0 l 309 0 l 343 31 q 393 31 424 46 q 454 60 473 86 q 492 111 506 143 l 506 143 z m 127 64 l 129 64 l 142 0 l 55 0 l 55 10 q 55 10 62 10 q 69 10 69 10 l 69 10 q 94 10 110 26 q 126 42 127 64 l 127 64 z m 191 536 l 188 536 l 188 600 l 262 600 l 262 590 q 262 590 256 590 q 250 590 250 590 l 250 590 q 226 590 209 575 q 191 559 191 536 l 191 536 z m 129 600 l 129 536 l 127 536 q 126 559 109 575 q 92 590 67 590 l 67 590 q 67 590 61 590 q 55 590 55 590 l 55 590 l 55 600 l 129 600 z"},"m":{"ha":878,"x_min":0,"x_max":878,"o":"m 414 49 l 698 614 l 707 549 l 473 88 q 473 88 466 71 q 458 54 450 31 q 442 7 438 -14 l 438 -14 l 428 -14 l 414 49 z m 91 67 l 112 67 l 112 0 l 8 0 l 8 10 q 8 10 16 10 q 23 10 23 10 l 23 10 q 49 10 69 25 q 88 40 91 67 l 91 67 z m 136 52 l 142 52 q 141 37 149 24 q 157 10 179 9 l 179 9 l 193 9 l 193 0 l 136 0 l 136 52 z m 82 0 l 169 614 l 179 614 l 199 555 l 137 0 l 82 0 z m 160 504 l 179 614 l 451 91 l 428 -14 l 160 504 z m 698 614 l 707 614 l 797 0 l 721 0 l 656 503 l 698 614 z m 767 0 l 767 67 l 787 67 q 791 40 811 25 q 831 10 856 10 l 856 10 q 856 10 864 10 q 871 10 871 10 l 871 10 l 871 0 l 767 0 z m 714 52 l 714 52 l 721 52 l 721 0 l 663 0 l 663 9 l 678 9 q 701 10 709 24 q 716 38 714 52 z"},"n":{"ha":779,"x_min":0,"x_max":779,"o":"m 118 511 l 108 615 l 662 93 l 672 -14 l 118 511 z m 107 62 l 110 62 l 110 0 l 35 0 l 35 10 q 35 10 44 10 q 52 10 52 10 l 52 10 q 75 10 91 25 q 107 40 107 62 l 107 62 z m 149 62 l 152 62 q 152 40 169 25 q 185 10 207 10 l 207 10 q 207 10 216 10 q 224 10 224 10 l 224 10 l 224 0 l 149 0 l 149 62 z m 98 615 l 108 615 l 151 559 l 152 0 l 107 0 l 107 490 q 107 541 103 578 q 98 615 98 615 l 98 615 z m 628 600 l 672 600 l 672 114 q 672 82 674 53 q 676 23 679 5 q 681 -14 681 -14 l 681 -14 l 672 -14 l 628 39 l 628 600 z m 672 538 l 669 538 l 669 600 l 744 600 l 744 590 q 744 590 736 590 q 727 590 727 590 l 727 590 q 705 590 689 575 q 672 560 672 538 l 672 538 z m 630 538 l 628 538 q 627 560 611 575 q 595 590 572 590 l 572 590 q 572 590 564 590 q 555 590 555 590 l 555 590 l 555 600 l 630 600 l 630 538 z"},"o":{"ha":774,"x_min":0,"x_max":774,"o":"m 387 614 l 387 614 q 457 614 519 592 q 580 569 627 527 q 673 485 699 428 q 725 370 725 300 l 725 300 q 725 230 699 173 q 673 115 627 73 q 580 31 519 9 q 457 -14 387 -14 l 387 -14 q 317 -14 256 9 q 195 31 149 73 q 102 115 76 173 q 50 230 50 300 l 50 300 q 50 370 76 428 q 102 485 149 527 q 195 569 256 592 q 317 614 387 614 z m 387 16 l 387 16 q 461 16 521 52 q 581 88 616 152 q 651 216 651 300 l 651 300 q 651 385 616 449 q 581 512 521 548 q 461 584 387 584 l 387 584 q 314 584 254 548 q 194 512 159 449 q 124 385 124 300 l 124 300 q 124 216 159 152 q 194 88 254 52 q 314 16 387 16 z"},"p":{"ha":553,"x_min":0,"x_max":553,"o":"m 178 600 l 178 600 l 289 600 q 359 600 410 580 q 461 559 489 521 q 517 482 517 429 l 517 429 q 517 372 492 332 q 466 291 424 270 q 382 248 331 249 q 280 249 229 274 l 229 274 l 229 284 q 229 284 246 281 q 262 278 288 279 q 314 279 343 288 q 372 296 398 319 q 423 342 438 385 l 438 385 q 442 396 444 411 q 445 426 445 439 l 445 439 q 445 500 403 535 q 361 570 287 570 l 287 570 l 189 570 q 189 570 187 578 q 184 585 181 593 q 178 600 178 600 z m 127 600 l 191 600 l 191 0 l 127 0 l 127 600 z m 127 64 l 129 64 l 142 0 l 55 0 l 55 10 q 55 10 62 10 q 69 10 69 10 l 69 10 q 93 10 110 26 q 126 42 127 64 l 127 64 z m 142 600 l 129 537 l 127 537 q 126 560 110 575 q 93 590 69 590 l 69 590 q 69 590 62 590 q 55 590 55 590 l 55 590 l 55 600 l 142 600 z m 175 0 l 188 64 l 190 64 q 191 42 208 26 q 224 10 248 10 l 248 10 q 249 10 256 10 q 262 10 262 10 l 262 10 l 262 0 l 175 0 z"},"q":{"ha":777,"x_min":0,"x_max":777,"o":"m 381 614 l 381 614 q 450 614 510 592 q 569 569 615 527 q 660 485 686 428 q 711 370 711 300 l 711 300 q 711 230 686 173 q 660 115 615 73 q 569 31 510 9 q 450 -14 381 -14 l 381 -14 q 312 -14 252 9 q 192 31 147 73 q 101 115 76 173 q 50 230 50 300 l 50 300 q 50 370 76 428 q 101 485 147 527 q 192 569 252 592 q 312 614 381 614 z m 381 16 l 381 16 q 453 16 511 52 q 569 88 604 152 q 638 216 638 300 l 638 300 q 638 385 604 449 q 569 512 511 548 q 453 584 381 584 l 381 584 q 309 584 251 548 q 193 512 159 449 q 124 385 124 300 l 124 300 q 124 216 159 152 q 193 88 251 52 q 309 16 381 16 z m 379 -13 l 379 -13 l 389 9 q 404 9 430 3 q 456 -3 491 -14 q 525 -25 567 -40 q 609 -56 657 -74 q 705 -93 758 -114 l 758 -114 q 808 -134 866 -144 q 924 -154 983 -151 q 1042 -149 1096 -130 q 1150 -111 1191 -74 l 1191 -74 l 1194 -78 q 1188 -94 1165 -118 q 1141 -143 1102 -166 q 1063 -189 1011 -202 q 958 -216 893 -211 q 828 -206 752 -174 l 752 -174 q 712 -157 666 -133 q 619 -109 570 -84 q 521 -60 473 -40 q 424 -21 379 -13 z"},"r":{"ha":627,"x_min":0,"x_max":627,"o":"m 177 600 l 177 600 l 306 600 q 353 600 391 589 q 428 578 455 557 q 481 536 495 506 q 509 476 509 438 l 509 438 q 509 396 489 360 q 469 324 434 301 q 398 278 353 273 l 353 273 q 370 266 393 242 q 415 218 431 195 l 431 195 q 431 195 444 178 q 457 160 478 135 q 498 109 518 86 l 518 86 q 539 63 557 46 q 574 29 595 20 q 615 10 642 10 l 642 10 l 642 0 l 611 0 q 556 0 521 14 q 485 28 463 49 q 441 69 425 88 l 425 88 q 421 93 407 114 q 392 134 375 158 q 358 182 344 202 q 330 221 327 225 l 327 225 q 307 251 281 272 q 255 292 226 292 l 226 292 l 226 302 q 226 302 242 302 q 258 301 283 302 l 283 302 q 311 303 339 307 q 367 310 392 328 q 416 346 430 388 l 430 388 q 434 399 436 414 q 438 429 437 445 l 437 445 q 436 473 427 495 q 417 517 400 533 q 382 549 358 558 q 334 567 304 568 l 304 568 q 257 570 222 569 q 187 568 187 569 l 187 569 q 187 570 185 578 q 182 585 180 593 q 177 600 177 600 z m 125 600 l 189 600 l 189 0 l 125 0 l 125 600 z m 126 64 l 128 64 l 140 0 l 55 0 l 55 10 q 55 10 62 10 q 69 10 69 10 l 69 10 q 93 10 109 26 q 125 42 126 64 l 126 64 z m 140 600 l 128 537 l 126 537 q 125 560 109 575 q 93 590 69 590 l 69 590 q 69 590 62 590 q 55 590 55 590 l 55 590 l 55 600 l 140 600 z m 174 0 l 186 64 l 189 64 q 190 42 206 26 q 222 10 246 10 l 246 10 q 246 10 253 10 q 259 10 259 10 l 259 10 l 260 0 l 174 0 z"},"s":{"ha":462,"x_min":0,"x_max":462,"o":"m 234 614 l 234 614 q 262 614 283 612 q 304 610 320 608 q 335 605 347 602 q 358 598 367 595 l 367 595 l 368 496 l 356 496 q 356 537 328 561 q 300 584 241 584 l 241 584 q 191 584 156 557 q 120 529 121 489 l 121 489 q 121 476 125 463 q 128 449 137 436 q 145 423 160 410 l 160 410 l 362 254 q 385 235 396 206 q 407 176 408 147 l 408 147 q 409 103 385 66 q 361 29 321 8 q 280 -14 231 -14 l 231 -14 q 202 -14 169 -9 q 135 -4 106 7 q 77 17 58 33 l 58 33 q 55 47 55 69 q 55 90 59 114 q 62 138 68 157 l 68 157 l 80 157 q 76 112 93 80 q 110 48 143 32 q 176 15 220 16 l 220 16 q 282 18 318 48 q 353 77 353 126 l 353 126 q 353 150 345 170 q 336 189 317 206 l 317 206 l 117 360 q 89 384 79 413 q 69 442 69 468 l 69 468 q 69 509 91 542 q 113 575 151 595 q 188 614 234 614 z m 296 605 l 366 605 l 367 587 l 296 587 l 296 605 z"},"t":{"ha":578,"x_min":0,"x_max":578,"o":"m 257 597 l 322 597 l 322 0 l 257 0 l 257 597 z m 15 601 l 564 601 l 564 571 l 15 571 l 15 601 z m 503 573 l 564 573 l 564 504 l 553 504 l 553 520 q 553 541 540 556 q 526 570 503 571 l 503 571 l 503 573 z m 564 617 l 564 617 l 564 591 l 452 601 q 472 601 495 604 q 517 606 536 610 q 555 614 564 617 z m 257 64 l 259 64 l 259 0 l 186 0 l 186 10 q 187 10 193 10 q 198 10 198 10 l 198 10 q 222 10 239 26 q 256 42 257 64 l 257 64 z m 319 0 l 319 64 l 322 64 q 323 42 340 26 q 357 10 381 10 l 381 10 q 381 10 387 10 q 392 10 392 10 l 392 10 l 392 0 l 319 0 z m 15 573 l 76 573 l 76 571 q 53 570 40 556 q 26 541 26 520 l 26 520 l 26 504 l 15 504 l 15 573 z m 15 591 l 15 617 q 24 614 43 610 q 61 606 84 604 q 107 601 127 601 l 127 601 l 15 591 z"},"u":{"ha":700,"x_min":0,"x_max":700,"o":"m 103 600 l 167 600 l 167 222 q 167 125 217 69 q 266 13 352 13 l 352 13 q 447 13 502 66 q 556 119 556 211 l 556 211 l 556 600 l 602 600 l 602 211 q 602 107 536 47 q 469 -14 353 -14 l 353 -14 q 238 -14 171 46 q 103 106 103 210 l 103 210 l 103 600 z m 40 600 l 105 600 l 105 547 l 103 547 q 102 565 89 578 q 75 590 55 590 l 55 590 q 55 590 48 590 q 40 590 40 590 l 40 590 l 40 600 z m 165 600 l 230 600 l 230 590 q 230 590 223 590 q 215 590 215 590 l 215 590 q 196 590 182 578 q 167 565 167 547 l 167 547 l 165 547 l 165 600 z m 493 600 l 558 600 l 558 547 l 556 547 q 556 565 542 578 q 528 590 508 590 l 508 590 q 508 590 501 590 q 493 590 493 590 l 493 590 l 493 600 z m 600 600 l 665 600 l 665 590 q 665 590 658 590 q 650 590 650 590 l 650 590 q 631 590 617 578 q 603 565 602 547 l 602 547 l 600 547 l 600 600 z"},"v":{"ha":663,"x_min":0,"x_max":663,"o":"m 344 75 l 327 -14 l 52 594 l 131 594 l 344 75 z m 336 -14 l 327 -14 l 320 55 l 549 597 l 612 597 l 375 89 q 375 89 370 77 q 364 65 357 48 q 349 30 343 13 q 337 -4 336 -14 l 336 -14 z m 579 527 l 520 527 q 531 557 517 574 q 503 590 485 590 l 485 590 l 478 590 l 478 600 l 668 600 l 668 590 q 668 590 664 590 q 660 590 660 590 l 660 590 q 639 590 617 576 q 595 561 579 527 l 579 527 z m 158 527 l 158 527 l 82 527 q 67 561 45 576 q 23 590 3 590 l 3 590 q 3 590 -1 590 q -5 590 -5 590 l -5 590 l -5 600 l 200 600 l 200 590 l 192 590 q 175 590 162 574 q 148 557 158 527 z"},"w":{"ha":899,"x_min":0,"x_max":899,"o":"m 290 -12 l 57 594 l 137 594 l 299 101 l 290 -12 z m 458 616 l 468 616 l 476 535 l 321 99 q 321 99 316 82 q 311 64 306 39 q 300 13 299 -12 l 299 -12 l 290 -12 l 271 77 l 458 616 z m 434 507 l 468 615 l 660 126 l 637 -12 l 434 507 z m 779 594 l 836 594 l 670 99 q 670 99 665 81 q 659 63 654 38 q 648 12 647 -12 l 647 -12 l 637 -12 l 625 87 l 779 594 z m 815 530 l 759 530 q 770 562 758 576 q 745 590 729 590 l 729 590 l 721 590 l 721 600 l 904 600 l 904 590 q 904 590 901 590 q 897 590 897 590 l 897 590 q 866 590 845 573 q 824 556 815 530 l 815 530 z m 158 531 l 158 531 l 82 530 q 72 556 52 573 q 32 590 0 590 l 0 590 q 0 590 -4 590 q -8 590 -8 590 l -8 590 l -8 600 l 198 600 l 198 590 l 190 590 q 174 590 161 577 q 148 563 158 531 z"},"x":{"ha":626,"x_min":0,"x_max":626,"o":"m 73 599 l 152 599 l 569 1 l 488 1 l 73 599 z m 98 61 l 162 64 q 149 45 163 28 q 176 10 195 10 l 195 10 q 195 10 201 10 q 207 10 207 10 l 207 10 l 207 0 l -11 0 l -11 10 l 2 10 q 32 10 57 26 q 82 41 98 61 l 98 61 z m 52 1 l 296 313 l 316 272 l 115 1 l 52 1 z m 445 63 l 445 63 l 527 60 q 542 41 568 26 q 594 10 624 10 l 624 10 l 637 10 l 637 0 l 400 0 l 400 10 q 400 10 406 10 q 412 10 412 10 l 412 10 q 432 10 445 28 q 457 45 445 63 z m 5 600 l 240 600 l 240 590 q 240 590 234 590 q 228 590 228 590 l 228 590 q 209 590 196 573 q 183 555 195 537 l 195 537 l 115 540 q 100 560 74 575 q 48 590 18 590 l 18 590 l 5 590 l 5 600 z m 485 599 l 553 599 l 340 303 l 315 345 l 485 599 z m 398 600 l 620 600 l 620 590 l 606 590 q 576 590 551 575 q 525 560 510 539 l 510 539 l 443 536 q 455 555 443 573 q 430 590 410 590 l 410 590 q 410 590 404 590 q 398 590 398 590 l 398 590 l 398 600 z"},"y":{"ha":640,"x_min":0,"x_max":640,"o":"m 62 599 l 149 599 l 334 270 l 293 235 l 62 599 z m 284 258 l 349 258 l 349 0 l 284 0 l 284 258 z m 305 248 l 517 599 l 580 599 l 342 237 l 305 248 z m 542 539 l 479 536 q 490 556 480 573 q 470 590 448 590 l 448 590 q 448 590 442 590 q 436 590 436 590 l 436 590 l 436 600 l 645 600 l 645 590 l 633 590 q 605 590 581 575 q 556 559 542 539 l 542 539 z m 184 537 l 184 537 l 99 540 q 83 563 60 577 q 36 590 7 590 l 7 590 l -5 590 l -5 600 l 227 600 l 227 590 q 227 590 221 590 q 215 590 215 590 l 215 590 q 193 590 184 573 q 174 555 184 537 z m 284 64 l 287 64 l 287 0 l 214 0 l 214 10 q 215 10 221 10 q 226 10 226 10 l 226 10 q 250 10 267 26 q 283 42 284 64 l 284 64 z m 346 0 l 346 64 l 349 64 q 350 42 367 26 q 383 10 407 10 l 407 10 q 407 10 413 10 q 419 10 419 10 l 419 10 l 419 0 l 346 0 z"},"z":{"ha":608,"x_min":0,"x_max":608,"o":"m 520 614 l 520 614 q 520 614 520 610 q 520 605 520 605 l 520 605 l 120 0 l 50 0 l 50 9 l 423 571 l 65 571 l 65 601 l 407 601 q 428 601 452 603 q 476 605 495 608 q 514 611 520 614 z m 115 30 l 529 30 l 522 0 l 115 0 l 115 30 z m 573 143 l 583 143 l 529 0 l 379 0 l 413 30 q 462 31 492 45 q 521 59 540 85 q 559 110 573 143 l 573 143 z m 65 504 l 65 573 l 126 573 l 126 571 q 104 570 90 556 q 76 541 76 519 l 76 519 l 76 504 l 65 504 z m 65 591 l 65 617 q 74 614 93 611 q 112 607 135 605 q 157 602 177 601 l 177 601 l 65 591 z"},"{":{"ha":337,"x_min":0,"x_max":337,"o":"m 138 340 l 138 340 q 143 353 139 382 q 135 411 130 448 q 124 484 124 517 l 124 517 q 125 578 143 627 q 160 675 198 704 q 236 733 296 733 l 296 733 l 298 725 q 252 713 229 685 q 206 657 198 615 q 190 572 189 517 l 189 517 q 189 484 191 451 q 192 418 190 391 q 187 363 177 344 q 166 324 141 316 l 141 316 q 167 310 178 291 q 188 271 191 242 q 193 213 191 181 q 189 148 189 116 l 189 116 q 190 75 194 41 q 198 6 210 -20 q 221 -47 242 -65 q 263 -83 298 -92 l 298 -92 l 296 -100 q 236 -100 198 -71 q 160 -42 143 7 q 125 56 124 116 l 124 116 q 124 149 129 185 q 134 221 138 250 q 141 279 135 292 l 135 292 q 130 305 114 309 q 98 313 85 314 l 85 314 l 85 324 q 99 325 116 327 q 132 329 138 340 z"},"|":{"ha":245,"x_min":0,"x_max":245,"o":"m 100 -180 l 100 700 l 145 700 l 145 -180 l 100 -180 z"},"}":{"ha":337,"x_min":0,"x_max":337,"o":"m 40 725 l 42 733 q 103 733 141 704 q 178 675 196 627 q 213 578 213 517 l 213 517 q 214 484 208 448 q 202 411 199 382 q 195 353 200 340 l 200 340 q 205 329 223 327 q 240 325 253 324 l 253 324 l 253 314 q 240 313 224 309 q 208 305 203 292 l 203 292 q 198 279 201 250 q 204 221 209 185 q 214 149 213 116 l 213 116 q 213 56 196 7 q 178 -42 141 -71 q 103 -100 42 -100 l 42 -100 l 40 -92 q 75 -83 96 -65 q 117 -47 129 -20 q 140 6 144 41 q 148 75 148 116 l 148 116 q 148 148 147 181 q 145 213 148 242 q 150 271 161 291 q 172 310 197 316 l 197 316 q 172 324 161 344 q 150 363 148 391 q 145 418 147 451 q 148 484 148 517 l 148 517 q 148 572 140 615 q 132 657 110 685 q 87 713 40 725 l 40 725 z"},"~":{"ha":493,"x_min":0,"x_max":493,"o":"m 85 219 l 85 219 l 40 219 q 32 266 45 296 q 57 326 83 342 q 109 357 140 358 l 140 358 q 166 358 194 344 q 222 329 250 310 q 277 290 302 275 q 327 259 346 259 l 346 259 q 367 258 385 269 q 403 280 411 302 q 418 323 408 353 l 408 353 l 453 353 q 465 305 451 274 q 437 243 408 229 q 379 214 346 214 l 346 214 q 320 214 293 229 q 266 243 240 263 q 213 282 188 297 q 163 312 140 313 l 140 313 q 112 314 94 292 q 76 270 85 219 z"}}}
